<?xml version="1.0" encoding="UTF-8" standalone="no"?>
<!-- Created with Inkscape (http://www.inkscape.org/) -->

<svg
   width="16.595297mm"
   height="18.57469mm"
   viewBox="0 0 16.595297 18.57469"
   version="1.1"
   id="svg1"
   sodipodi:docname="walkers.svg"
   xmlns:inkscape="http://www.inkscape.org/namespaces/inkscape"
   xmlns:sodipodi="http://sodipodi.sourceforge.net/DTD/sodipodi-0.dtd"
   xmlns="http://www.w3.org/2000/svg"
   xmlns:svg="http://www.w3.org/2000/svg">
  <sodipodi:namedview
     id="namedview1"
     pagecolor="#505050"
     bordercolor="#eeeeee"
     borderopacity="1"
     inkscape:showpageshadow="0"
     inkscape:pageopacity="0"
     inkscape:pagecheckerboard="0"
     inkscape:deskcolor="#505050"
     inkscape:document-units="mm">
    <inkscape:page
       x="0"
       y="0"
       width="16.595297"
       height="18.57469"
       id="page2"
       margin="0"
       bleed="0" />
  </sodipodi:namedview>
  <defs
     id="defs1" />
  <g
     inkscape:label="Layer 1"
     inkscape:groupmode="layer"
     id="layer1"
     transform="translate(-132.70998,-144.46031)">
    <path
       d="m 130.56419,43.542001 c 7.6e-4,-1.340313 -1.44968,-2.178858 -2.61081,-1.509378 -0.53954,0.311065 -0.87182,0.886613 -0.87147,1.509378 -7.6e-4,1.340322 1.44968,2.178862 2.61082,1.509382 0.53954,-0.311065 0.87182,-0.886608 0.87146,-1.509382 z m 1.21516,5.488166 c 0.0358,0.01432 0.0689,0.0291 0.1052,0.04342 l 0.29007,0.126951 c 0.59487,0.264823 1.05191,0.769013 1.25867,1.385667 l 0.0945,0.282953 c 0.20323,0.60939 0.85969,0.935853 1.46906,0.732719 0.60942,-0.203139 0.93588,-0.859678 0.73275,-1.469072 l -0.0945,-0.282908 c -0.41361,-1.236926 -1.32761,-2.245323 -2.51739,-2.774917 l -0.29007,-0.12695 c -0.75449,-0.333715 -1.57063,-0.507829 -2.39769,-0.507829 -1.61777,0 -3.07595,0.972129 -3.69624,2.462965 l -0.55861,1.338487 -0.77626,0.388148 c -0.57311,0.286579 -0.80525,0.983007 -0.51872,1.556129 0.28649,0.573117 0.98302,0.805267 1.55613,0.518707 l 0.97214,-0.482439 c 0.37378,-0.188636 0.66743,-0.500569 0.82706,-0.88869 l 0.34826,-0.834292 0.70006,2.375908 -1.79552,1.958763 c -0.19607,0.214016 -0.3335,0.471552 -0.40646,0.754483 l -0.83427,3.340777 c -0.15622,0.620281 0.22114,1.251434 0.84515,1.40741 0.62392,0.155957 1.25146,-0.221268 1.40742,-0.84517 l 0.79801,-3.19568 2.56452,-2.796681 c 0.53686,-0.583999 0.73637,-1.400157 0.53323,-2.165518 l -0.613,-2.303364 z m 2.09657,7.207523 -0.90683,-2.263462 c -0.0761,0.108821 -0.16339,0.21039 -0.25381,0.31196 l -1.47632,1.610535 0.52593,1.313096 c 0.0873,0.217642 0.21756,0.417155 0.38453,0.583999 l 2.23806,2.238068 c 0.45341,0.453418 1.18978,0.453418 1.64319,0 0.45342,-0.453414 0.45342,-1.189759 0,-1.643182 z"
       fill="#000000"
       stroke-width="0.0132292"
       id="path1-9"
       style="display:inline;fill:#000000;fill-opacity:1;stroke-width:0.0132292"
       transform="translate(12.934539,102.66304)" />
    <path
       id="path1-9-9"
       mask="none"
       style="fill:#000000;fill-opacity:1;stroke-width:0.0132292"
       d="M 123.25792 45.357776 C 123.00334 45.353403 122.74108 45.412657 122.49414 45.547945 C 122.03516 45.799386 121.7528 46.264632 121.7531 46.768026 C 121.75245 47.851438 122.98637 48.529262 123.97415 47.988107 C 124.43313 47.736666 124.7155 47.271428 124.71519 46.768026 C 124.71568 45.955473 124.02163 45.370896 123.25792 45.357776 z M 124.60099 49.110519 C 123.22476 49.110519 121.98416 49.896536 121.45648 51.101612 L 120.98157 52.183199 L 120.32114 52.497392 C 119.8336 52.729041 119.63608 53.291929 119.87983 53.755196 C 120.12355 54.218459 120.71624 54.405925 121.20378 54.174292 L 122.0306 53.784135 C 122.34857 53.631656 122.59863 53.37956 122.73443 53.065833 L 123.03054 52.391455 L 123.62585 54.312268 L 122.09881 55.895634 C 121.93202 56.068628 121.81465 56.276717 121.75258 56.505416 L 121.04306 59.20551 C 120.91017 59.706896 121.23104 60.217346 121.76188 60.343425 C 122.29265 60.469488 122.82655 60.164575 122.95923 59.660262 L 123.63825 57.076957 L 125.82003 54.81663 C 126.16227 54.462888 126.34334 54.003309 126.3399 53.535055 C 125.50236 53.720692 124.60125 53.320795 124.20256 52.52323 C 123.73334 51.584684 124.12135 50.422144 125.05987 49.952845 L 125.58542 49.691362 L 125.77249 49.242294 C 125.39003 49.155198 124.99702 49.110519 124.60099 49.110519 z M 128.31962 52.282935 C 128.12304 52.488101 128.00523 52.769409 127.74963 52.898401 L 127.74756 52.898401 L 127.45818 53.041545 C 127.57426 53.157137 127.71932 53.24192 127.87831 53.289075 L 128.43693 52.679293 L 128.31962 52.282935 z M 126.26342 55.744739 L 125.28932 56.754497 L 125.73683 57.81593 C 125.73866 57.820242 125.74014 57.824555 125.742 57.82885 L 126.26342 55.744739 z M 129.43997 58.847909 L 129.23378 59.673698 L 129.23378 59.675765 C 129.17212 59.922419 129.06366 60.146699 128.9201 60.340841 C 129.08333 60.299896 129.23769 60.218424 129.36555 60.096928 C 129.7247 59.755675 129.74962 59.216488 129.43997 58.847909 z "
       transform="translate(12.934539,102.66304)" />
  </g>
</svg>
